<?xml version="1.0" encoding="utf-8"?>
<!-- Generator: Adobe Illustrator 16.0.0, SVG Export Plug-In . SVG Version: 6.00 Build 0)  -->
<!DOCTYPE svg PUBLIC "-//W3C//DTD SVG 1.1//EN" "http://www.w3.org/Graphics/SVG/1.1/DTD/svg11.dtd">
<svg version="1.1" id="Layer_1" xmlns="http://www.w3.org/2000/svg" xmlns:xlink="http://www.w3.org/1999/xlink" x="0px" y="0px"
	 width="150px" height="30px" viewBox="0 0 150 30" enable-background="new 0 0 150 30" xml:space="preserve">
<g>
	<path display="none" fill-rule="evenodd" clip-rule="evenodd" fill="#FFFFFF" d="M77.635,30.982
		c-25.688,0-51.378-0.004-77.067,0.016c-0.707,0-0.939-0.064-0.936-0.832C-0.334,17.784-0.336,5.397-0.365-6.985
		c-0.002-0.704,0.228-0.786,0.873-0.786c51.414,0.016,102.831,0.018,154.243-0.01c0.827,0,0.876,0.237,0.874,0.896
		c-0.021,12.348-0.025,24.698,0.007,37.047c0.003,0.758-0.211,0.838-0.931,0.838C129.012,30.979,103.325,30.982,77.635,30.982z"/>
	<path fill-rule="evenodd" clip-rule="evenodd" fill="#2D66AF" d="M7.186,22.307c1.143-3.074,2.166-5.838,3.198-8.599
		c0.225-0.602,0.48-1.189,1.211-1.406c1.008-0.299,1.816,0.159,2.255,1.32c0.975,2.568,1.933,5.142,2.899,7.712
		c0.096,0.254,0.21,0.496,0.381,0.902c1.125-2.978,2.2-5.801,3.258-8.635c0.246-0.662,0.561-1.225,1.375-1.348
		c1.455-0.216,2.298,0.942,1.725,2.428c-0.926,2.399-1.888,4.788-2.836,7.174c-0.611,1.537-1.248,3.068-1.842,4.617
		c-0.302,0.781-0.713,1.365-1.714,1.363c-1.029-0.004-1.375-0.668-1.665-1.428c-1.063-2.785-2.132-5.568-3.237-8.46
		c-0.597,0.927-0.817,1.886-1.179,2.786c-0.76,1.893-1.479,3.805-2.195,5.713c-0.293,0.787-0.688,1.393-1.697,1.387
		c-0.948-0.011-1.362-0.572-1.654-1.307c-1.57-3.963-3.149-7.922-4.716-11.885c-0.433-1.102-0.129-1.955,0.785-2.311
		c0.989-0.384,1.858,0.054,2.3,1.201C4.925,16.356,5.995,19.188,7.186,22.307z"/>
	<path fill-rule="evenodd" clip-rule="evenodd" fill="#72A0D5" d="M86.517,19.998c0-1.93-0.008-3.853,0.003-5.782
		c0.007-1.232,0.577-1.749,1.919-1.758c1.333-0.009,2.659-0.011,3.992,0c4.487,0.042,6.033,4.041,4.146,6.496
		c-0.306,0.401-0.091,0.486,0.23,0.687c1.894,1.149,2.568,2.722,2.028,4.647c-0.516,1.852-2.231,3.215-4.372,3.299
		c-2.105,0.078-4.217,0.043-6.325,0.02c-1.025-0.012-1.607-0.611-1.616-1.617C86.505,23.992,86.518,21.996,86.517,19.998z"/>
	<path fill-rule="evenodd" clip-rule="evenodd" fill="#72A0D5" d="M146.305,17.117c0-1.879-0.001-3.593,0.001-5.304
		c0.001-0.785,0.358-1.389,1.155-1.618c0.772-0.223,1.449,0,1.925,0.674c0.227,0.315,0.228,0.658,0.228,1.01
		c0,4.729-0.012,9.458,0.011,14.187c0.004,0.852-0.32,1.471-1.158,1.703c-0.774,0.221-1.521-0.018-1.876-0.746
		c-0.303-0.619-0.548-0.205-0.811-0.049c-2.421,1.432-5.317,1.086-7.257-0.879c-1.936-1.961-2.151-5.595-0.469-7.809
		c1.598-2.109,4.522-2.873,7.009-1.819C145.424,16.621,145.76,16.829,146.305,17.117z"/>
	<path fill-rule="evenodd" clip-rule="evenodd" fill="#2D66AF" d="M55.146,22.984c-1.038,0-2.076,0.023-3.109-0.006
		c-0.739-0.026-0.715,0.238-0.415,0.733c0.729,1.202,2.465,1.755,4.229,1.28c0.457-0.123,0.89-0.336,1.322-0.531
		c0.761-0.336,1.398-0.18,1.807,0.498c0.423,0.693,0.139,1.299-0.505,1.734c-1.417,0.963-3.03,1.246-4.739,1.115
		c-2.564-0.193-4.704-1.756-5.478-3.984c-0.796-2.289-0.058-4.896,1.822-6.419c1.863-1.51,4.699-1.841,6.863-0.767
		c2.042,1.015,2.96,2.668,2.908,4.818c-0.021,0.932-0.601,1.484-1.601,1.52C57.218,23.008,56.18,22.984,55.146,22.984z"/>
	<path fill-rule="evenodd" clip-rule="evenodd" fill="#72A0D5" d="M120.481,23.246c0,0.984,0.004,1.963-0.001,2.945
		c-0.005,0.742-0.339,1.287-1.093,1.541c-0.699,0.23-1.359,0.07-1.784-0.484c-0.322-0.426-0.512-0.404-0.948-0.145
		c-1.427,0.848-2.991,0.957-4.58,0.492c-1.663-0.488-2.498-1.68-2.452-3.334c0.04-1.441,1.032-2.516,2.684-2.936
		c1.347-0.34,2.72-0.215,4.076-0.195c0.762,0.007,0.881-0.3,0.74-0.896c-0.286-1.21-1.731-1.814-3.235-1.35
		c-0.573,0.176-1.033,0.533-1.535,0.824c-0.653,0.379-1.313,0.3-1.81-0.219c-0.51-0.541-0.433-1.166,0.02-1.73
		c0.338-0.418,0.769-0.755,1.272-0.996c1.837-0.901,3.757-0.992,5.691-0.409c1.802,0.546,2.893,2.149,2.951,4.16
		C120.508,21.424,120.481,22.336,120.481,23.246z"/>
	<path fill-rule="evenodd" clip-rule="evenodd" fill="#72A0D5" d="M123.644,21.951c0-1.366,0.014-2.732-0.006-4.099
		c-0.01-0.771,0.241-1.411,1.013-1.712c0.758-0.295,1.49-0.148,1.949,0.535c0.337,0.51,0.585,0.174,0.877,0.012
		c1.205-0.666,2.51-0.844,3.852-0.556c2.063,0.444,3.267,1.989,3.326,4.288c0.052,1.855,0.034,3.711,0.004,5.566
		c-0.02,1.266-0.644,1.885-1.747,1.837c-0.984-0.042-1.513-0.702-1.516-1.921c-0.004-1.541,0.014-3.082-0.006-4.627
		c-0.02-1.483-0.974-2.511-2.26-2.471c-1.269,0.045-2.155,1.019-2.173,2.452c-0.02,1.614,0.003,3.228-0.008,4.835
		c-0.008,1.092-0.602,1.717-1.608,1.731c-1.02,0.017-1.667-0.587-1.69-1.667C123.622,24.752,123.644,23.352,123.644,21.951z"/>
	<path fill-rule="evenodd" clip-rule="evenodd" fill="#2D66AF" d="M66.271,27.818c-1.622,0.025-3.055-0.452-4.271-1.471
		c-0.639-0.535-0.843-1.188-0.305-1.859c0.568-0.715,1.317-0.729,2.048-0.215c0.817,0.582,1.674,1.041,2.733,0.99
		c0.58-0.033,1.177-0.158,1.321-0.76c0.151-0.625-0.456-0.814-0.918-1.014c-0.874-0.377-1.779-0.697-2.635-1.102
		c-1.744-0.834-2.379-1.919-2.147-3.529c0.197-1.359,1.253-2.345,3.019-2.695c1.776-0.355,3.452-0.1,4.967,0.91
		c0.741,0.492,1.045,1.142,0.557,1.895c-0.497,0.769-1.233,0.786-2.014,0.307c-0.66-0.401-1.369-0.691-2.181-0.679
		c-0.502,0.009-1.024,0.069-1.184,0.589c-0.18,0.581,0.355,0.791,0.786,0.977c0.738,0.321,1.504,0.588,2.244,0.9
		c2.181,0.918,2.974,2.088,2.646,3.852c-0.302,1.615-1.914,2.791-4,2.902C66.716,27.836,66.493,27.818,66.271,27.818z"/>
	<path fill-rule="evenodd" clip-rule="evenodd" fill="#2D66AF" d="M77.321,27.823c-1.496,0.009-2.839-0.409-4.006-1.306
		c-0.865-0.664-1.064-1.457-0.484-2.08c0.67-0.717,1.416-0.621,2.155-0.07c0.783,0.578,1.64,0.961,2.655,0.893
		c0.574-0.045,1.166-0.186,1.271-0.813c0.101-0.559-0.438-0.752-0.874-0.936c-0.877-0.373-1.78-0.691-2.637-1.1
		c-1.775-0.844-2.403-1.875-2.201-3.504c0.172-1.395,1.264-2.416,3.076-2.758c1.78-0.338,3.46-0.074,4.961,0.955
		c0.733,0.504,0.991,1.172,0.48,1.912c-0.489,0.703-1.199,0.732-1.939,0.289c-0.66-0.404-1.364-0.711-2.17-0.709
		c-0.539,0.002-1.115,0.049-1.252,0.637c-0.132,0.572,0.418,0.766,0.848,0.949c0.708,0.305,1.438,0.563,2.144,0.86
		c2.248,0.94,3.058,2.136,2.687,3.927c-0.341,1.643-2.008,2.785-4.155,2.853C77.689,27.832,77.505,27.823,77.321,27.823z"/>
	<path fill-rule="evenodd" clip-rule="evenodd" fill="#2D66AF" d="M45.42,19.008c0,2.344,0.007,4.688-0.002,7.035
		c-0.005,1.171-0.603,1.801-1.661,1.78c-1.014-0.015-1.625-0.626-1.628-1.722c-0.013-4.76-0.017-9.52,0.001-14.282
		c0.004-1.083,0.647-1.684,1.676-1.678c1.006,0.006,1.606,0.626,1.612,1.721C45.429,14.245,45.42,16.625,45.42,19.008z"/>
	<path fill-rule="evenodd" clip-rule="evenodd" fill="#2D66AF" d="M32.792,21.875c-0.001-1.365,0.011-2.731-0.005-4.094
		c-0.01-0.785,0.273-1.412,1.07-1.664c0.76-0.244,1.499-0.102,1.945,0.598c0.262,0.41,0.435,0.318,0.756,0.08
		c0.652-0.484,1.394-0.756,2.248-0.768c0.868-0.013,1.443,0.322,1.589,1.135c0.146,0.829-0.223,1.445-1.058,1.758
		c-3.247,1.217-3.248,1.213-3.249,4.516c0,0.945,0.021,1.891-0.006,2.836c-0.024,0.938-0.642,1.527-1.563,1.552
		c-1,0.028-1.686-0.538-1.716-1.532C32.761,24.824,32.793,23.35,32.792,21.875z"/>
	<path fill-rule="evenodd" clip-rule="evenodd" fill="#72A1D4" d="M102.869,16.035c0.411-0.041,0.894,0.057,1.12,0.438
		c0.396,0.65,0.751,0.54,1.271,0.151c0.562-0.423,1.241-0.581,1.966-0.599c0.883-0.02,1.446,0.361,1.603,1.148
		c0.163,0.814-0.236,1.426-1.065,1.736c-0.239,0.09-0.5,0.109-0.753,0.166c-1.732,0.41-2.464,1.264-2.489,2.988
		c-0.025,1.367,0.007,2.732-0.009,4.098c-0.017,1.008-0.619,1.631-1.567,1.661c-1.028,0.034-1.718-0.567-1.728-1.628
		c-0.027-2.838-0.024-5.67-0.002-8.508C101.225,16.65,101.843,16.055,102.869,16.035z"/>
	<path fill-rule="evenodd" clip-rule="evenodd" fill="#2D66AF" d="M29.647,21.953c0,1.398,0.013,2.797-0.004,4.196
		c-0.014,1.085-0.634,1.688-1.665,1.674c-0.974-0.009-1.611-0.595-1.62-1.616c-0.026-2.871-0.028-5.741,0.002-8.611
		c0.01-0.992,0.688-1.571,1.676-1.561c0.984,0.011,1.589,0.598,1.605,1.615C29.662,19.082,29.647,20.517,29.647,21.953z"/>
	<path fill-rule="evenodd" clip-rule="evenodd" fill="#73A2D6" d="M39.835,11.376c-0.013,0.271,0.062,0.594-0.369,0.641
		c-0.487,0.055-0.514-0.275-0.561-0.603c-0.246-1.757-0.826-3.391-1.851-4.896c-1.456-2.141-3.399-3.662-5.959-4.47
		c-0.342-0.107-0.907-0.095-0.733-0.695c0.186-0.633,0.657-0.282,0.988-0.188C36.586,2.644,39.566,7.654,39.835,11.376z"/>
	<path fill-rule="evenodd" clip-rule="evenodd" fill="#2F66AF" d="M27.98,10.141c1.186-0.023,2.081,0.753,2.112,1.823
		c0.028,1.065-0.845,1.906-2.008,1.933c-1.156,0.027-2.089-0.783-2.118-1.838C25.939,10.982,26.8,10.161,27.98,10.141z"/>
	<path fill-rule="evenodd" clip-rule="evenodd" fill="#74A2D6" d="M36.527,11.639c-0.011,0.231,0.095,0.604-0.426,0.612
		c-0.496,0.011-0.457-0.362-0.51-0.662c-0.453-2.56-1.821-4.551-4.146-5.927c-0.493-0.294-1.06-0.49-1.602-0.703
		c-0.31-0.124-0.511-0.281-0.422-0.627c0.104-0.409,0.419-0.302,0.708-0.247C33.088,4.642,36.536,8.675,36.527,11.639z"/>
	<path fill-rule="evenodd" clip-rule="evenodd" fill="#74A3D5" d="M32.831,11.666c0.073,0.326,0.062,0.536-0.23,0.583
		c-0.332,0.055-0.608-0.043-0.669-0.386c-0.342-1.933-1.492-3.217-3.43-3.879c-0.331-0.111-0.318-0.32-0.209-0.585
		c0.151-0.371,0.422-0.333,0.719-0.22c1.951,0.725,3.241,2.012,3.737,3.968C32.8,11.349,32.813,11.559,32.831,11.666z"/>
	<path display="none" fill-rule="evenodd" clip-rule="evenodd" fill="#7CA8D6" d="M152.422,28.035c-1.132,0-2.102-0.852-2.128-1.867
		c-0.03-1.283,0.83-2.131,2.156-2.135c1.237-0.004,2.24,0.881,2.242,1.992C154.693,27.041,153.576,28.035,152.422,28.035z"/>
	<path fill-rule="evenodd" clip-rule="evenodd" fill="#FFFFFF" d="M92.079,24.9c-2.424,0-2.434,0-2.421-2.299
		c0.01-1.732-0.233-1.496,1.572-1.513c0.816-0.007,1.632-0.038,2.437,0.028c1.417,0.121,2.055,0.809,1.994,2.033
		c-0.05,1.141-0.758,1.723-2.144,1.748C93.038,24.908,92.559,24.9,92.079,24.9z"/>
	<path fill-rule="evenodd" clip-rule="evenodd" fill="#FDFEFF" d="M89.655,16.838c0.032-1.93-0.284-1.637,1.737-1.669
		c0.224-0.003,0.442-0.005,0.666,0.001c1.206,0.033,1.928,0.592,1.997,1.529c0.064,0.971-0.682,1.721-1.84,1.837
		c-0.258,0.03-0.519,0.025-0.771,0.027C89.654,18.577,89.654,18.576,89.655,16.838z"/>
	<path fill-rule="evenodd" clip-rule="evenodd" fill="#FFFFFF" d="M146.309,21.979c-0.005,1.861-1.086,2.952-2.932,2.954
		c-1.821,0.007-3.094-1.235-3.094-3.009c0.001-1.715,1.367-3.072,3.09-3.074C145.145,18.842,146.313,20.09,146.309,21.979z"/>
	<path fill-rule="evenodd" clip-rule="evenodd" fill="#FBFEFF" d="M53.994,20.848c-0.587,0-1.179-0.045-1.763,0.009
		c-1.044,0.085-0.91-0.378-0.538-0.966c0.63-0.989,1.564-1.436,2.776-1.318c0.954,0.088,1.646,0.558,2.013,1.406
		c0.235,0.549,0.211,0.943-0.617,0.879C55.245,20.803,54.618,20.848,53.994,20.848z"/>
	<path fill-rule="evenodd" clip-rule="evenodd" fill="#FDFEFF" d="M115.471,23.193c0.146,0,0.298-0.02,0.44,0.004
		c0.405,0.072,1.004-0.232,1.176,0.221c0.173,0.448-0.159,0.932-0.511,1.305c-0.681,0.725-1.554,0.916-2.508,0.746
		c-0.601-0.109-1.111-0.43-1.121-1.105c-0.011-0.752,0.554-1.025,1.207-1.127c0.431-0.061,0.88-0.01,1.316-0.01
		C115.471,23.215,115.471,23.203,115.471,23.193z"/>
	<path display="none" fill-rule="evenodd" clip-rule="evenodd" fill="#F7F9FD" d="M151.615,24.676
		c0.819-0.453,1.586-0.328,2.148,0.352c0.489,0.598,0.514,1.322,0.004,1.939c-0.569,0.686-1.301,0.879-2.14,0.401
		c0.001-0.394,0.442-0.575,0.513-0.942c0.111-0.162,0.313-0.189,0.469-0.285c0.651-0.971-0.262-0.926-0.81-1.113
		C151.659,24.949,151.542,24.855,151.615,24.676z"/>
	<path display="none" fill-rule="evenodd" clip-rule="evenodd" fill="#F3F7FC" d="M152.276,26.361
		c0.131,0.535-0.184,0.816-0.648,1.014c-1.209-0.923-1.212-1.795-0.013-2.699c0.086,0.07,0.175,0.148,0.266,0.221
		c0.047,0.09,0.068,0.178,0.063,0.277C152.016,25.58,151.496,26.131,152.276,26.361z"/>
	<path display="none" fill-rule="evenodd" clip-rule="evenodd" fill="#7FA9D7" d="M152.276,26.361
		c-0.301,0.068-0.046,0.643-0.475,0.523c-0.284-0.076-0.164-0.416-0.159-0.639c0.009-0.389-0.175-0.814,0.158-1.172
		c0.191-0.125,0.364-0.102,0.521,0.059c-0.013,0.387,0.305,0.611,0.507,0.895c-0.01,0.184,0.039,0.377-0.108,0.537
		C152.572,26.498,152.425,26.428,152.276,26.361z"/>
	<path display="none" fill-rule="evenodd" clip-rule="evenodd" fill="#80AAD7" d="M152.274,25.26
		c-0.158-0.064-0.315-0.121-0.474-0.186c0.022-0.059,0.048-0.115,0.08-0.178c1.464,0.127,1.576,0.35,0.84,1.668
		c-0.003-0.217-0.006-0.441-0.01-0.658C152.51,25.727,152.342,25.52,152.274,25.26z"/>
</g>
</svg>
