<?xml version="1.0" encoding="utf-8"?>
<!-- Generator: Adobe Illustrator 16.0.0, SVG Export Plug-In . SVG Version: 6.00 Build 0)  -->
<!DOCTYPE svg PUBLIC "-//W3C//DTD SVG 1.1 Tiny//EN" "http://www.w3.org/Graphics/SVG/1.1/DTD/svg11-tiny.dtd">
<svg version="1.1" baseProfile="tiny" id="Layer_1" xmlns="http://www.w3.org/2000/svg" xmlns:xlink="http://www.w3.org/1999/xlink"
	 x="0px" y="0px" width="160px" height="40px" viewBox="0 0 160 40" xml:space="preserve">
<g>
	<path fill-rule="evenodd" fill="#0E517B" d="M56.244,16.211c-0.034-0.204,0.155-0.359,0.125-0.563
		c0.169-0.295,0.178-0.655,0.379-0.938c0.077-0.051,0.165-0.04,0.25-0.04c1.375,0,2.751-0.005,4.127,0.002
		c0.033,0.001,0.065,0.011,0.094,0.026c0.221,0.443,0.316,0.929,0.477,1.393c0.178,0.51,0.348,1.022,0.491,1.543
		c0.018,0.065,0.066,0.116,0.102,0.172c0.353,1.083,0.717,2.163,1.045,3.254c0.033,0.11,0.074,0.213,0.124,0.313
		c0.003,0.073,0.006,0.146,0.009,0.219c0.055,0.109,0.066,0.234,0.113,0.347v-0.001c0.281,0.783,0.513,1.583,0.779,2.372
		c0.042,0.123,0.028,0.341,0.194,0.338c0.137-0.002,0.101-0.213,0.145-0.328c0.084-0.222,0.152-0.449,0.227-0.674
		c0.17-0.612,0.408-1.205,0.572-1.819c0.047-0.292,0.191-0.557,0.236-0.849c0.2-0.488,0.334-0.999,0.507-1.496
		c0.016-0.045,0.032-0.088,0.056-0.129c0.174-0.471,0.307-0.955,0.485-1.424c-0.034-0.205,0.155-0.36,0.124-0.563
		c0.151-0.313,0.235-0.649,0.339-0.979c0.158-0.487,0.32-0.974,0.472-1.464c0.057-0.185,0.143-0.277,0.361-0.275
		c1.428,0.01,2.857,0.004,4.285,0.005c0.289,0,0.323,0.047,0.229,0.313c-0.061,0.169-0.126,0.337-0.19,0.506
		c-0.134,0.365-0.253,0.734-0.38,1.101c-0.252,0.761-0.511,1.52-0.767,2.279c-0.327,0.971-0.653,1.942-0.98,2.913
		c-0.211,0.629-0.421,1.26-0.632,1.89c-0.312,0.896-0.601,1.798-0.916,2.693c-0.343,1.011-0.687,2.021-1.03,3.032
		c-0.238,0.666-0.443,1.343-0.688,2.006c-0.078,0.1-0.191,0.072-0.292,0.072c-1.458,0.001-2.917-0.003-4.375,0.007
		c-0.207,0.001-0.288-0.091-0.345-0.259c-0.813-2.424-1.627-4.848-2.443-7.271c-0.148-0.441-0.299-0.881-0.448-1.322
		c-0.019-0.054-0.025-0.124-0.093-0.127c-0.084-0.004-0.096,0.077-0.118,0.139c-0.042,0.115-0.083,0.232-0.124,0.349
		c-0.235,0.646-0.439,1.301-0.67,1.947c-0.247,0.743-0.527,1.476-0.738,2.231c-0.254,0.739-0.482,1.488-0.768,2.218
		c-0.241,0.59-0.42,1.2-0.624,1.804c-0.065,0.188-0.154,0.277-0.365,0.275c-1.43-0.006-2.861-0.005-4.292,0
		c-0.187,0-0.295-0.054-0.357-0.242c-0.101-0.305-0.183-0.616-0.32-0.909c-0.113-0.211-0.147-0.452-0.254-0.665
		c-0.05-0.203-0.119-0.4-0.204-0.593v0.001c-0.027-0.114-0.08-0.225-0.086-0.344c-0.212-0.757-0.498-1.488-0.746-2.232
		c-0.446-1.338-0.907-2.672-1.361-4.006c-0.263-0.719-0.485-1.451-0.743-2.171c-0.178-0.498-0.329-1.004-0.521-1.496
		c-0.28-0.706-0.493-1.436-0.743-2.152c-0.057-0.162-0.115-0.321-0.18-0.479c-0.118-0.42-0.28-0.826-0.407-1.244
		c-0.067-0.221-0.04-0.272,0.195-0.273c1.458-0.002,2.917,0,4.375-0.004c0.149,0,0.222,0.06,0.271,0.195
		c0.144,0.4,0.257,0.811,0.401,1.212c0.002,0.055,0.003,0.11,0.005,0.166c0.354,1.01,0.662,2.035,0.997,3.051
		c0.193,0.585,0.376,1.173,0.572,1.757c0.2,0.67,0.425,1.33,0.638,1.995c0.068,0.214,0.121,0.433,0.196,0.644l0.001-0.001
		c0.113,0.28,0.205,0.569,0.278,0.862c0.037,0.093,0.083,0.146,0.173,0.049c0.083-0.161,0.102-0.343,0.161-0.512
		c0.089-0.209,0.127-0.435,0.22-0.643c0.208-0.418,0.293-0.879,0.456-1.313c0.192-0.669,0.443-1.32,0.627-1.992
		c0.047-0.292,0.191-0.556,0.237-0.849c0.2-0.487,0.333-0.998,0.506-1.496c0.016-0.044,0.032-0.088,0.056-0.129
		C55.933,17.166,56.067,16.681,56.244,16.211z"/>
	<path fill-rule="evenodd" fill="#0E517B" d="M116.54,29.846c-0.83-0.643-1.519-1.407-2.008-2.342
		c-0.696-1.31-1.017-2.708-1.028-4.189c-0.01-1.063,0.069-2.106,0.37-3.131c0.207-0.7,0.519-1.347,0.889-1.97
		c0.665-1.081,1.594-1.89,2.648-2.568c0.057-0.036,0.109-0.074,0.164-0.111c1.122-0.665,2.337-1.042,3.634-1.147
		c1.468-0.12,2.9,0.049,4.278,0.592c0.491,0.204,0.971,0.432,1.416,0.725c1.186,0.767,2.133,1.75,2.748,3.033
		c0.523,1.114,0.697,2.301,0.716,3.516c0.012,0.706,0.002,1.412,0.002,2.116c0,0.344-0.005,0.351-0.354,0.351
		c-3.833,0-7.667,0-11.5,0c-0.408,0-0.415,0.021-0.307,0.426c0.073,0.271,0.205,0.51,0.332,0.756
		c0.493,0.822,1.229,1.367,2.119,1.645c2.018,0.631,3.854,0.259,5.451-1.153c0.188-0.166,0.28-0.168,0.45,0.021
		c0.727,0.807,1.463,1.605,2.212,2.392c0.174,0.184,0.145,0.277-0.024,0.429c-0.889,0.796-1.885,1.416-2.988,1.867
		c-0.492,0.173-0.981,0.354-1.5,0.431c-0.49,0.062-0.981,0.106-1.472,0.169c-0.287,0.035-0.576,0.064-0.852,0.019
		c-0.498-0.083-1.001-0.09-1.499-0.176c-1.425-0.242-2.707-0.787-3.849-1.668C116.573,29.864,116.557,29.854,116.54,29.846z"/>
	<path fill-rule="evenodd" fill="#0E517B" d="M36.328,27.101c0.386-0.196,0.719-0.465,1.023-0.767
		c0.125-0.125,0.204-0.122,0.322,0.008c0.771,0.845,1.546,1.686,2.327,2.521c0.126,0.135,0.102,0.212-0.023,0.324
		c-1.648,1.481-3.555,2.355-5.782,2.5c-1.346,0.087-2.663-0.037-3.945-0.468c-0.599-0.212-1.182-0.458-1.72-0.8
		c-1.635-1.013-2.792-2.411-3.418-4.238c-0.012-0.035-0.012-0.075-0.018-0.112c-0.495-1.644-0.548-3.31-0.261-4.993
		c0.005-0.031,0.01-0.063,0.014-0.095c0.037-0.102,0.009-0.214,0.047-0.317c0.065-0.368,0.195-0.718,0.323-1.068
		c0.693-1.751,1.902-3.055,3.495-4.025c0.032-0.019,0.069-0.031,0.104-0.046c2.98-1.558,5.961-1.516,8.941,0
		c1.139,0.646,2.088,1.489,2.75,2.632c0.495,0.88,0.804,1.826,0.924,2.825c0.084,0.7,0.084,1.407,0.073,2.112
		c-0.006,0.447-0.008,0.896,0.003,1.345c0.004,0.188-0.063,0.263-0.248,0.252c-0.094-0.006-0.19,0-0.286,0
		c-3.748,0-7.497-0.001-11.246,0c-0.475,0-0.522,0.065-0.35,0.513c0.075,0.193,0.13,0.398,0.25,0.571
		c0.326,0.552,0.753,1.002,1.308,1.325c0.133,0.078,0.268,0.152,0.395,0.239c0.022,0.015,0.044,0.03,0.066,0.045
		c0.25,0.059,0.474,0.188,0.721,0.253c0.707,0.187,1.417,0.208,2.145,0.128C35.001,27.685,35.682,27.455,36.328,27.101z"/>
	<path fill-rule="evenodd" fill="#0E517B" d="M100.908,27.433c0.617-0.286,1.193-0.633,1.671-1.123
		c0.114-0.117,0.19-0.076,0.281,0.022c0.781,0.846,1.563,1.692,2.348,2.535c0.111,0.12,0.101,0.202-0.019,0.307
		c-0.526,0.47-1.074,0.908-1.695,1.247c-0.864,0.484-1.769,0.868-2.744,1.06c-0.933,0.182-1.87,0.286-2.827,0.194
		c-0.482-0.046-0.961-0.114-1.441-0.172c-0.03-0.001-0.061-0.006-0.09-0.012c-0.091-0.058-0.194-0.04-0.294-0.051
		c-0.042-0.01-0.082-0.022-0.124-0.035c-0.737-0.206-1.446-0.484-2.103-0.882c-1.035-0.648-1.939-1.436-2.63-2.456
		c-0.294-0.435-0.521-0.904-0.747-1.376c-0.305-0.741-0.511-1.514-0.594-2.305c-0.084-0.795-0.102-1.594-0.02-2.395
		c0.101-0.99,0.313-1.946,0.729-2.854c0.765-1.607,1.968-2.798,3.496-3.679c0.033-0.019,0.069-0.032,0.103-0.048
		c0.145-0.094,0.305-0.155,0.458-0.23v0c0.261-0.121,0.523-0.232,0.799-0.313c0.854-0.283,1.722-0.458,2.626-0.462
		c0.771-0.004,1.538,0.027,2.301,0.149c0.031,0.002,0.063,0.007,0.093,0.017c0.096,0.057,0.211,0.025,0.311,0.061
		c0.785,0.198,1.534,0.482,2.23,0.902c0.752,0.482,1.464,1.014,2.041,1.707c0.03,0.036,0.057,0.075,0.084,0.113
		c0.586,0.75,1.006,1.582,1.258,2.5c0.158,0.57,0.244,1.153,0.276,1.739c0.058,1.008,0.049,2.019,0.026,3.028
		c-0.022,0.029-0.052,0.049-0.088,0.057c-0.143,0.016-0.285,0.009-0.428,0.009c-3.847,0.004-7.693-0.006-11.539,0.005
		c-0.183,0.036-0.138,0.172-0.116,0.287c0.047,0.24,0.145,0.463,0.241,0.685c0.416,0.848,1.128,1.37,1.949,1.772
		c0.183,0.088,0.372,0.156,0.563,0.227C98.521,27.967,99.729,27.902,100.908,27.433z"/>
	<path fill-rule="evenodd" fill="#0D517A" d="M21.146,30.754c-0.036,0.023-0.071,0.046-0.107,0.068
		c-0.497,0.227-1.008,0.416-1.519,0.608c-1.218,0.347-2.451,0.384-3.7,0.207c-1.053-0.15-2.055-0.449-2.997-0.942
		c-0.413-0.216-0.811-0.456-1.178-0.744c-0.946-0.73-1.742-1.594-2.346-2.629c-0.486-0.882-0.791-1.824-0.923-2.818
		c-0.106-0.801-0.126-1.605-0.047-2.412c0.044-0.445,0.104-0.886,0.231-1.314c0.252-0.861,0.597-1.683,1.077-2.445
		c0.826-1.266,1.938-2.212,3.261-2.922c0.146-0.089,0.305-0.156,0.46-0.228h0c0.192-0.049,0.347-0.199,0.556-0.205
		c0.697-0.29,1.433-0.424,2.174-0.534c0.774-0.115,1.549-0.067,2.323-0.001c1.527,0.22,2.94,0.74,4.222,1.605
		c0.472,0.34,0.92,0.708,1.338,1.113c0.138,0.133,0.152,0.228,0.032,0.383c-0.718,0.925-1.429,1.856-2.134,2.791
		c-0.13,0.172-0.205,0.153-0.347,0.006c-1.22-1.272-2.713-1.918-4.478-1.818c-1.413,0.081-2.573,0.693-3.401,1.872
		c-0.356,0.494-0.5,1.075-0.671,1.644c-0.088,0.792-0.142,1.583,0.068,2.367c0.068,0.255,0.144,0.506,0.266,0.741
		c0.272,0.528,0.629,0.989,1.085,1.371c1.264,1.003,2.668,1.306,4.228,0.858c0.369-0.104,0.713-0.253,1.037-0.457
		c0.652-0.406,1.233-0.897,1.712-1.5c0.14-0.176,0.227-0.175,0.372-0.008c0.811,0.925,1.63,1.845,2.452,2.761
		c0.115,0.128,0.117,0.21-0.007,0.331c-0.847,0.832-1.751,1.587-2.808,2.145C21.31,30.704,21.224,30.721,21.146,30.754z"/>
	<path fill-rule="evenodd" fill="#0D517A" d="M131.54,30.19c-0.549-0.271-1.043-0.624-1.532-0.987
		c-0.137-0.102-0.154-0.184-0.052-0.328c0.606-0.853,1.207-1.712,1.805-2.571c0.097-0.139,0.177-0.161,0.321-0.054
		c0.291,0.216,0.596,0.41,0.894,0.614c0.121,0.1,0.276,0.141,0.402,0.228l0,0c0.181,0.113,0.361,0.228,0.574,0.271
		c0.181,0.062,0.349,0.153,0.526,0.223c0.124,0.125,0.313,0.093,0.447,0.194c0.056,0.002,0.109,0.004,0.164,0.006
		c0.97,0.286,1.958,0.399,2.967,0.309c0.225-0.021,0.44-0.102,0.648-0.193c0.873-0.414,1.004-1.286,0.287-1.934
		c-0.104-0.094-0.229-0.166-0.345-0.248c-0.745-0.466-1.571-0.739-2.401-1c-0.443-0.14-0.883-0.286-1.313-0.462
		c-0.188-0.102-0.39-0.168-0.584-0.254c-0.841-0.398-1.667-0.821-2.346-1.478c-0.259-0.252-0.482-0.535-0.635-0.866
		c-0.701-1.55-0.598-3.059,0.229-4.531c0.543-0.878,1.317-1.493,2.232-1.946c1.051-0.5,2.157-0.736,3.321-0.777
		c1.278-0.044,2.511,0.139,3.707,0.578c0.581,0.213,1.139,0.473,1.68,0.773l0,0c0.191,0.115,0.381,0.232,0.576,0.341
		c0.45,0.261,0.449,0.26,0.198,0.707c-0.167,0.298-0.327,0.599-0.491,0.899c-0.174,0.305-0.338,0.614-0.516,0.917
		c-0.123,0.214-0.257,0.423-0.365,0.644c-0.094,0.191-0.179,0.223-0.369,0.096c-0.928-0.616-1.927-1.078-3.034-1.254
		c-0.867-0.138-1.742-0.19-2.589,0.142c-0.389,0.151-0.632,0.428-0.67,0.847c-0.041,0.439,0.16,0.78,0.52,1.013
		c0.399,0.259,0.839,0.441,1.295,0.58c0.773,0.278,1.556,0.527,2.34,0.77c0.58,0.2,1.164,0.395,1.713,0.677
		c0.086,0.044,0.164,0.102,0.249,0.15h-0.001c0.26,0.165,0.548,0.283,0.803,0.458c0.52,0.306,0.889,0.755,1.195,1.264
		c0.624,1.271,0.615,2.586,0.247,3.916c-0.08,0.286-0.188,0.578-0.359,0.833c-0.539,0.921-1.287,1.625-2.23,2.12
		c-0.063,0.062-0.157,0.068-0.228,0.117l0,0c-0.277,0.118-0.544,0.262-0.844,0.318c-0.621,0.217-1.263,0.312-1.917,0.367
		c-1.048,0.092-2.075-0.041-3.095-0.259c-0.719-0.127-1.41-0.347-2.087-0.612C132.422,30.626,131.971,30.43,131.54,30.19z"/>
	<path fill-rule="evenodd" fill="#0D517A" d="M149.124,19.651c0.259,0.471,0.728,0.645,1.186,0.835c0.955,0.399,1.948,0.688,2.934,1
		c0.5,0.182,1.01,0.337,1.49,0.572c0.059,0.035,0.117,0.071,0.175,0.107c0.069,0.053,0.162,0.059,0.23,0.115h-0.001
		c0.259,0.168,0.547,0.285,0.802,0.46c0.263,0.15,0.491,0.342,0.686,0.573c0.647,0.761,0.915,1.646,0.952,2.639
		c0.036,0.969-0.118,1.883-0.548,2.75c-0.335,0.678-0.839,1.207-1.434,1.658c-0.261,0.182-0.524,0.359-0.806,0.51
		c-0.036,0.021-0.072,0.043-0.109,0.063c-0.444,0.189-0.886,0.381-1.359,0.5c-0.492,0.123-0.988,0.184-1.488,0.242
		c-1.035,0.12-2.043-0.05-3.052-0.238c-0.413-0.077-0.813-0.195-1.217-0.302c-0.705-0.225-1.394-0.495-2.056-0.83
		c-0.641-0.299-1.217-0.699-1.779-1.123c-0.119-0.089-0.126-0.166-0.043-0.285c0.615-0.87,1.228-1.741,1.836-2.616
		c0.113-0.162,0.202-0.107,0.325-0.017c0.559,0.413,1.141,0.789,1.783,1.063c0.956,0.433,1.946,0.724,3.004,0.774
		c0.553,0.026,1.099,0.046,1.635-0.119c0.064-0.019,0.119-0.055,0.18-0.081c0.875-0.42,1.005-1.274,0.298-1.93
		c-0.212-0.194-0.461-0.334-0.704-0.479c-0.132-0.121-0.317-0.132-0.461-0.227c-1.142-0.473-2.354-0.753-3.482-1.259
		c-0.654-0.291-1.271-0.648-1.857-1.057c-0.468-0.326-0.827-0.756-1.123-1.24c-0.703-1.412-0.649-2.823,0.001-4.234
		c0.469-0.841,1.111-1.514,1.939-2.007c1.23-0.712,2.556-1.026,3.978-1.068c1.791-0.054,3.437,0.411,5.005,1.225
		c0.278,0.145,0.543,0.314,0.814,0.471c0.457,0.254,0.455,0.252,0.206,0.701c-0.359,0.644-0.714,1.289-1.071,1.934
		c-0.096,0.121-0.122,0.285-0.237,0.395c-0.036,0.077-0.074,0.153-0.11,0.229c-0.042,0.099-0.111,0.133-0.214,0.09
		c-0.638-0.434-1.313-0.797-2.051-1.034c-0.491-0.18-0.998-0.301-1.521-0.348c-0.755-0.076-1.504-0.094-2.225,0.207
		c-0.147,0.077-0.286,0.166-0.397,0.291C148.968,18.902,148.975,19.269,149.124,19.651z"/>
	<path fill-rule="evenodd" fill="#0E517B" d="M109.96,30.755c-0.541-0.373-1.033-0.796-1.379-1.366
		c-0.404-0.614-0.647-1.288-0.751-2.015c-0.016-0.115-0.019-0.229-0.019-0.343c-0.001-6.136-0.001-12.272-0.001-18.409
		c0-0.336,0.001-0.336,0.34-0.336c1.308,0,2.615,0,3.922,0c0.374,0,0.375,0,0.375,0.387c0,7.454,0,14.907,0,22.36
		c0,0.418,0,0.418-0.426,0.413c-0.066-0.001-0.134,0.001-0.199-0.015C111.147,31.354,110.536,31.104,109.96,30.755z"/>
	<path fill-rule="evenodd" fill="#0E517B" d="M86.537,19.651c-0.092,0.078-0.184,0.156-0.275,0.233
		c-0.672,0.732-1.006,1.616-1.192,2.577c-0.161,0.838-0.158,1.685-0.161,2.531c-0.008,2.031-0.002,4.063-0.003,6.094
		c0,0.33,0,0.331-0.315,0.331c-1.335,0-2.671-0.004-4.006,0.004c-0.217,0.001-0.293-0.049-0.293-0.284
		c0.008-5.285,0.006-10.569,0.006-15.854c0-0.095-0.001-0.19,0-0.286c0.005-0.3,0.027-0.325,0.33-0.326
		c1.067-0.003,2.137-0.001,3.205-0.001c0.258,0,0.516,0.004,0.772-0.001c0.217-0.004,0.308,0.087,0.304,0.31
		c-0.01,0.534-0.002,1.068-0.003,1.603c0,0.074-0.024,0.162,0.077,0.189c0.086,0.023,0.144-0.027,0.176-0.106
		c0.56-0.657,1.276-1.107,2.012-1.532c0.793-0.441,1.646-0.684,2.545-0.775c0.195-0.02,0.264,0.035,0.272,0.27
		c0.044,1.133-0.038,2.269,0.042,3.401c0.055,0.764,0.063,0.768-0.694,0.763c-0.891-0.006-1.744,0.122-2.504,0.634
		C86.728,19.495,86.646,19.589,86.537,19.651z"/>
	<path fill-rule="evenodd" fill="#0E517B" d="M2.648,23.087c0-2.701,0.003-5.401-0.005-8.102c0-0.26,0.064-0.34,0.335-0.338
		c1.355,0.015,2.71,0.013,4.065,0.002c0.243-0.002,0.305,0.076,0.304,0.31C7.343,20.36,7.343,25.763,7.35,31.163
		c0,0.245-0.074,0.303-0.308,0.302c-1.364-0.01-2.729-0.01-4.094,0c-0.238,0.002-0.305-0.065-0.304-0.305
		C2.652,28.469,2.648,25.778,2.648,23.087z"/>
	<path fill-rule="evenodd" fill="#0E517B" d="M78.579,23.056c0,2.689-0.003,5.379,0.005,8.07c0.001,0.253-0.048,0.345-0.326,0.341
		c-1.363-0.016-2.728-0.012-4.091-0.002c-0.229,0.001-0.289-0.063-0.288-0.291c0.006-5.398,0.006-10.796-0.001-16.195
		c0-0.269,0.078-0.334,0.34-0.332c1.354,0.014,2.709,0.013,4.063,0.001c0.248-0.002,0.303,0.08,0.302,0.311
		C78.577,17.658,78.579,20.357,78.579,23.056z"/>
	<path fill-rule="evenodd" fill="#2AB9DD" d="M7.345,10.089c0,0.668-0.009,1.336,0.004,2.004c0.004,0.242-0.058,0.334-0.319,0.332
		c-1.345-0.012-2.69-0.005-4.036-0.007c-0.081,0-0.196,0.042-0.235-0.05c-0.044-0.105,0.066-0.167,0.13-0.231
		C4.306,10.72,5.723,9.304,7.14,7.89c0.043-0.044,0.074-0.131,0.154-0.098C7.373,7.824,7.344,7.908,7.344,7.97
		C7.346,8.677,7.345,9.383,7.345,10.089z"/>
	<path fill-rule="evenodd" fill="#386E90" d="M85.158,16.664c0.007,0.152-0.108,0.224-0.216,0.208
		c-0.13-0.02-0.085-0.148-0.082-0.255c0.012-0.563,0.008-1.125,0.012-1.688c0.001-0.15-0.077-0.2-0.215-0.2
		c-1.374,0.001-2.747,0.002-4.121,0c-0.135,0-0.192,0.053-0.184,0.187c0.004,0.076,0,0.153,0,0.229c0,5.256,0,10.513,0,15.769
		c0,0.476,0,0.476,0.467,0.476c1.221,0,2.441,0,3.663,0c0.39,0,0.39,0,0.39-0.378c0.001-2.413-0.02-4.827,0.013-7.239
		c0.017-1.278,0.29-2.505,1.06-3.573c0.089-0.123,0.167-0.255,0.317-0.314c-0.338,0.472-0.658,0.952-0.855,1.505
		c-0.218,0.614-0.377,1.243-0.403,1.892c-0.106,2.612-0.031,5.227-0.044,7.84c-0.001,0.278-0.078,0.355-0.353,0.354
		c-1.354-0.013-2.709-0.009-4.063-0.001c-0.229,0.001-0.314-0.056-0.313-0.305c0.007-5.398,0.007-10.797,0-16.196
		c0-0.261,0.074-0.351,0.341-0.348c1.345,0.011,2.69,0.012,4.035,0c0.281-0.002,0.362,0.095,0.353,0.367
		c-0.018,0.514,0,1.03-0.008,1.545C84.946,16.721,85.003,16.761,85.158,16.664z"/>
	<path fill-rule="evenodd" fill="#5986A3" d="M111.735,31.387c0.684,0.007,0.684,0.007,0.684-0.677c0-7.327,0-14.656,0-21.984
		c0-0.399,0-0.399-0.409-0.399c-1.299,0-2.596,0.006-3.894-0.005c-0.23-0.002-0.285,0.069-0.285,0.292
		c0.006,6.107,0.001,12.214,0.011,18.321c0.001,0.772,0.224,1.502,0.613,2.175c0.053,0.088,0.133,0.163,0.126,0.28
		c-0.379-0.425-0.537-0.952-0.692-1.481c-0.132-0.445-0.126-0.903-0.126-1.362c0-5.98,0.001-11.961-0.007-17.942
		c0-0.277,0.077-0.355,0.354-0.353c1.354,0.014,2.709,0.013,4.063,0.001c0.255-0.002,0.321,0.075,0.321,0.325
		c-0.006,7.536-0.005,15.073-0.006,22.609c0,0.083-0.014,0.169-0.02,0.255c-0.227,0.065-0.453,0.042-0.681,0.01
		c-0.019-0.001-0.036-0.002-0.054-0.005c-0.02-0.014-0.027-0.026-0.02-0.039C111.721,31.394,111.729,31.387,111.735,31.387z"/>
	<path fill-rule="evenodd" fill="#5E89A5" d="M29.626,25.774c-0.257-0.275-0.31-0.635-0.391-0.98
		c-0.02-0.086,0.062-0.113,0.128-0.121c0.122-0.018,0.246-0.032,0.368-0.032c3.794-0.002,7.589-0.005,11.383,0.007
		c0.297,0,0.365-0.081,0.357-0.367c-0.026-1.009,0.036-2.021-0.054-3.028c-0.088-0.975-0.334-1.908-0.788-2.781
		c-0.051-0.099-0.135-0.189-0.122-0.314c0.384,0.51,0.571,1.108,0.744,1.709c0.305,1.057,0.3,2.144,0.29,3.232
		c-0.003,0.457-0.006,0.914,0.003,1.371c0.003,0.193-0.061,0.29-0.262,0.275c-0.066-0.005-0.134-0.001-0.2-0.001
		c-3.812,0-7.624,0-11.435,0c-0.334,0-0.367,0.042-0.26,0.363C29.46,25.332,29.545,25.554,29.626,25.774z"/>
	<path fill-rule="evenodd" fill="#AEC4D2" d="M118.54,25.9c-0.274-0.288-0.344-0.668-0.446-1.031
		c-0.031-0.113,0.027-0.184,0.152-0.182c0.076,0.001,0.152,0,0.229,0c3.833,0,7.664-0.005,11.496,0.006
		c0.293,0.002,0.371-0.073,0.361-0.365c-0.033-0.914,0.025-1.83-0.038-2.744c-0.066-0.936-0.235-1.847-0.623-2.709
		c-0.019-0.041-0.014-0.092-0.02-0.138c0.293,0.413,0.393,0.901,0.513,1.378c0.365,1.454,0.192,2.938,0.231,4.412
		c0.005,0.171-0.078,0.243-0.245,0.232c-0.067-0.004-0.134-0.001-0.201-0.001c-3.807,0-7.614,0-11.421,0
		c-0.36,0-0.389,0.029-0.277,0.374C118.333,25.392,118.442,25.645,118.54,25.9z"/>
	<path fill-rule="evenodd" fill="#ADC3D1" d="M86.537,19.651c0.436-0.482,1.017-0.681,1.626-0.805
		c0.496-0.101,1.001-0.13,1.505-0.096c0.262,0.017,0.319-0.08,0.315-0.325c-0.022-1.284-0.032-2.569-0.038-3.854
		c-0.003-0.26-0.187-0.174-0.302-0.162c-0.771,0.079-1.511,0.282-2.21,0.622c-0.085,0.041-0.176,0.067-0.264,0.101
		c0.255-0.263,0.607-0.332,0.93-0.456c0.517-0.198,1.053-0.313,1.608-0.349c0.246-0.016,0.335,0.065,0.333,0.322
		c-0.012,0.933-0.003,1.866,0.004,2.8c0.002,0.352,0.024,0.703,0.036,1.054c0.008,0.245-0.094,0.356-0.358,0.354
		c-0.616-0.006-1.234-0.039-1.842,0.139c-0.426,0.125-0.816,0.307-1.171,0.569C86.656,19.604,86.613,19.661,86.537,19.651z"/>
	<path fill-rule="evenodd" fill="#517F9D" d="M114.763,18.213c0.003,0.167-0.125,0.273-0.195,0.404
		c-0.663,1.24-0.991,2.561-1.01,3.967c-0.017,1.107,0.019,2.205,0.345,3.276c0.136,0.445,0.295,0.882,0.498,1.303
		c0.054,0.108,0.142,0.207,0.132,0.341c-0.345-0.455-0.518-0.99-0.679-1.523c-0.499-1.654-0.526-3.339-0.218-5.027
		c0.167-0.913,0.492-1.776,0.984-2.57C114.659,18.32,114.683,18.244,114.763,18.213z"/>
	<path fill-rule="evenodd" fill="#5F8BA7" d="M50.644,30.238c0.17,0.311,0.236,0.659,0.361,0.985
		c0.05,0.131,0.113,0.175,0.248,0.175c1.467-0.003,2.935-0.005,4.403,0.001c0.174,0.001,0.225-0.088,0.272-0.226
		c0.217-0.618,0.39-1.252,0.656-1.852c0.043,0.037,0.038,0.08,0.017,0.126c-0.195,0.575-0.397,1.147-0.583,1.726
		c-0.074,0.23-0.188,0.329-0.448,0.327c-1.409-0.014-2.818-0.012-4.227-0.002c-0.235,0.001-0.369-0.061-0.434-0.299
		c-0.077-0.283-0.187-0.558-0.283-0.836C50.606,30.318,50.601,30.275,50.644,30.238z"/>
	<path fill-rule="evenodd" fill="#5F8BA7" d="M156.856,16.098c-0.227-0.028-0.391-0.188-0.577-0.293
		c-1.123-0.628-2.304-1.091-3.584-1.268c-1.882-0.26-3.699-0.075-5.398,0.844c-0.075,0.041-0.144,0.098-0.237,0.089
		c0.477-0.378,1.04-0.583,1.61-0.754c1.44-0.433,2.91-0.477,4.38-0.208c1.352,0.248,2.597,0.79,3.758,1.523
		C156.829,16.044,156.841,16.075,156.856,16.098z"/>
	<path fill-rule="evenodd" fill="#A0BAC9" d="M94.781,25.666c-0.165-0.305-0.396-0.595-0.229-0.977
		c0.109-0.053,0.226-0.025,0.338-0.025c3.822-0.002,7.644-0.002,11.466-0.004c0.11,0,0.228,0.035,0.334-0.031h-0.001
		c0.021-0.023,0.04-0.021,0.06,0.002c0,0.085-0.052,0.119-0.128,0.122c-0.095,0.003-0.189,0.004-0.285,0.004
		c-3.819,0-7.638,0-11.458,0c-0.352,0-0.339-0.002-0.268,0.34C94.652,25.293,94.789,25.457,94.781,25.666z"/>
	<path fill-rule="evenodd" fill="#B7CAD6" d="M11.646,29.951c0.504,0.279,0.971,0.621,1.498,0.862
		c1.752,0.8,3.578,1.038,5.479,0.768c0.312-0.044,0.615-0.12,0.919-0.194c0.055-0.035,0.111-0.033,0.168-0.003
		c-0.427,0.228-0.904,0.276-1.367,0.337c-1.685,0.218-3.314-0.044-4.884-0.676c-0.592-0.239-1.141-0.564-1.666-0.928
		C11.731,30.073,11.665,30.034,11.646,29.951z"/>
	<path fill-rule="evenodd" fill="#5E89A5" d="M37.756,15.525c-0.468-0.158-0.891-0.418-1.362-0.577
		c-1.5-0.503-3.025-0.633-4.59-0.411c-0.954,0.135-1.849,0.437-2.702,0.877c-0.09,0.046-0.173,0.124-0.288,0.11
		c0.403-0.333,0.889-0.514,1.372-0.67c2.47-0.805,4.891-0.678,7.243,0.455C37.545,15.364,37.685,15.398,37.756,15.525z"/>
	<path fill-rule="evenodd" fill="#6892AC" d="M142.539,15.756c-0.526-0.191-1.008-0.481-1.534-0.679
		c-1.45-0.548-2.937-0.756-4.482-0.59c-0.86,0.092-1.686,0.289-2.478,0.635c-0.065,0.029-0.131,0.085-0.214,0.061
		c0.442-0.315,0.961-0.438,1.472-0.575c1.004-0.27,2.032-0.301,3.06-0.227c1.476,0.107,2.84,0.595,4.126,1.31
		C142.511,15.703,142.522,15.734,142.539,15.756z"/>
	<path fill-rule="evenodd" fill="#5E89A5" d="M116.54,29.846c0.217,0.059,0.367,0.227,0.547,0.346
		c1.14,0.755,2.388,1.199,3.742,1.371c1.046,0.134,2.085,0.144,3.123-0.046c0.103-0.02,0.209-0.013,0.314-0.018
		c0.036,0.018,0.038,0.036,0.002,0.058c-0.509,0.066-1.018,0.133-1.527,0.197c-0.622,0.081-1.239-0.019-1.85-0.094
		c-1.485-0.184-2.864-0.676-4.083-1.57C116.711,30.02,116.593,29.967,116.54,29.846z"/>
	<path fill-rule="evenodd" fill="#B1C6D4" d="M125.526,15.016c-1.139-0.41-2.311-0.631-3.524-0.621
		c-1.462,0.012-2.85,0.32-4.143,1.019c-0.089,0.048-0.168,0.13-0.284,0.121c0.346-0.313,0.781-0.458,1.199-0.625
		c1.548-0.619,3.15-0.711,4.787-0.477c0.707,0.101,1.396,0.259,2.045,0.568C125.585,15.037,125.559,15.042,125.526,15.016z"/>
	<path fill-rule="evenodd" fill="#5F8BA7" d="M147.536,31.095c0.802,0.231,1.615,0.426,2.445,0.505
		c1.52,0.147,3.015,0.059,4.431-0.592c0.086-0.04,0.168-0.091,0.269-0.073c-0.512,0.346-1.1,0.496-1.689,0.628
		c-1.813,0.404-3.587,0.136-5.344-0.354c-0.072-0.021-0.138-0.063-0.206-0.096C147.468,31.08,147.499,31.073,147.536,31.095z"/>
	<path fill-rule="evenodd" fill="#5885A2" d="M96.385,31.449c0.575,0.047,1.141,0.159,1.722,0.19
		c0.707,0.037,1.401-0.008,2.098-0.103c1.083-0.15,2.097-0.507,3.053-1.033c0.073-0.04,0.141-0.103,0.237-0.083
		c-0.394,0.327-0.87,0.494-1.331,0.683c-1.112,0.459-2.287,0.63-3.478,0.659c-0.709,0.017-1.42-0.09-2.123-0.207
		C96.521,31.489,96.376,31.597,96.385,31.449z"/>
	<path fill-rule="evenodd" fill="#A6BECD" d="M90.609,19.139c-0.13,0.395-0.278,0.785-0.388,1.185
		c-0.298,1.093-0.389,2.204-0.328,3.335c0.055,1.008,0.237,1.98,0.598,2.922c0.012,0.032,0.003,0.073,0.003,0.111
		c-0.26-0.407-0.36-0.873-0.457-1.331c-0.4-1.904-0.35-3.79,0.293-5.641C90.399,19.519,90.438,19.295,90.609,19.139z"/>
	<path fill-rule="evenodd" fill="#618CA7" d="M106.749,24.631c-0.021,0-0.04-0.001-0.06-0.002c-0.002-0.571,0.003-1.141-0.009-1.712
		c-0.018-0.977-0.033-1.953-0.275-2.909c-0.23-0.914-0.617-1.751-1.194-2.499c-0.034-0.046-0.074-0.088-0.061-0.153
		c0.488,0.487,0.783,1.092,1.037,1.718c0.393,0.965,0.548,1.978,0.562,3.012C106.759,22.935,106.75,23.783,106.749,24.631z"/>
	<path fill-rule="evenodd" fill="#BDCFDA" d="M8.607,20.739c-0.257,0.986-0.316,1.986-0.258,3.001
		c0.071,1.235,0.365,2.402,0.943,3.497c0.012,0.023,0.005,0.056,0.007,0.085c-0.328-0.397-0.464-0.886-0.631-1.355
		c-0.327-0.923-0.444-1.89-0.439-2.855c0.003-0.896,0.066-1.799,0.378-2.658C8.654,20.549,8.648,20.644,8.607,20.739z"/>
	<path fill-rule="evenodd" fill="#AEC4D2" d="M50.634,16.046c-0.195-0.287-0.241-0.63-0.348-0.949
		c-0.138-0.415-0.123-0.419-0.563-0.419c-1.351,0-2.701,0-4.052,0.001c-0.319,0-0.311,0.003-0.223,0.293
		c0.124,0.408,0.306,0.796,0.386,1.217c0.02,0.037,0.015,0.069-0.017,0.097c-0.159-0.457-0.315-0.915-0.476-1.371
		c-0.074-0.211-0.039-0.317,0.219-0.316c1.466,0.007,2.933,0.005,4.4,0.001c0.137,0,0.248,0.025,0.292,0.168
		C50.388,15.192,50.569,15.603,50.634,16.046z"/>
	<path fill-rule="evenodd" fill="#5C88A4" d="M48.011,22.443c0.501,1.465,1.001,2.931,1.503,4.396
		c0.174,0.512,0.352,1.022,0.527,1.535c0.036,0.106,0.093,0.21,0.07,0.33c-0.019,0.018-0.036,0.018-0.051-0.003
		c-0.593-1.748-1.188-3.495-1.778-5.243c-0.102-0.306-0.236-0.602-0.29-0.922C47.972,22.501,47.979,22.47,48.011,22.443z"/>
	<path fill-rule="evenodd" fill="#5C88A4" d="M134.922,31.397c0.404,0.059,0.806,0.125,1.21,0.176
		c1.102,0.14,2.197,0.118,3.281-0.143c0.202-0.05,0.404-0.098,0.607-0.146c0.018,0.013,0.022,0.024,0.017,0.036
		c-0.006,0.011-0.012,0.017-0.018,0.017c-1.081,0.357-2.187,0.492-3.321,0.384c-0.598-0.058-1.196-0.104-1.775-0.271
		c-0.019-0.01-0.025-0.022-0.019-0.034C134.91,31.403,134.916,31.397,134.922,31.397z"/>
	<path fill-rule="evenodd" fill="#5986A3" d="M157.029,28.703c0.131-0.465,0.354-0.899,0.427-1.384
		c0.191-1.283,0.14-2.523-0.6-3.655c-0.076-0.117-0.224-0.188-0.231-0.35c0.476,0.398,0.709,0.947,0.844,1.52
		c0.297,1.267,0.232,2.515-0.323,3.716C157.117,28.61,157.098,28.675,157.029,28.703z"/>
	<path fill-rule="evenodd" fill="#608CA6" d="M19.657,26.919c-0.178,0.217-0.44,0.286-0.685,0.377
		c-1.573,0.584-3.043,0.362-4.413-0.589c-0.068-0.047-0.145-0.095-0.166-0.189c0.419,0.24,0.803,0.537,1.265,0.705
		c1.288,0.467,2.539,0.412,3.763-0.211C19.495,26.974,19.578,26.95,19.657,26.919z"/>
	<path fill-rule="evenodd" fill="#A8BFCE" d="M152.449,27.902c-0.299,0.252-0.671,0.25-1.025,0.263
		c-1.297,0.051-2.533-0.231-3.716-0.758c-0.031-0.015-0.053-0.052-0.077-0.079c0.434,0.098,0.827,0.315,1.259,0.43
		C150.068,28.073,151.248,28.234,152.449,27.902z"/>
	<path fill-rule="evenodd" fill="#ACC2D0" d="M22.634,16.047c-0.508-0.252-0.979-0.571-1.504-0.792
		c-0.861-0.361-1.742-0.645-2.673-0.758c-0.098-0.092-0.275,0.063-0.345-0.112c0.699,0.018,1.365,0.204,2.026,0.412
		c0.838,0.264,1.632,0.623,2.362,1.116C22.553,15.949,22.623,15.968,22.634,16.047z"/>
	<path fill-rule="evenodd" fill="#5E89A5" d="M52.181,21.025c-0.341-1.035-0.683-2.07-1.021-3.105
		c-0.165-0.504-0.327-1.01-0.486-1.516c-0.02-0.062-0.024-0.128-0.034-0.192c0.155,0.079,0.129,0.247,0.17,0.374
		c0.481,1.478,0.952,2.959,1.426,4.439C52.218,21.052,52.199,21.051,52.181,21.025z"/>
	<path fill-rule="evenodd" fill="#5E89A5" d="M24.871,20.97c-0.084,0.753-0.203,1.504-0.178,2.267
		c0.029,0.876,0.133,1.739,0.37,2.584c0.023,0.083,0.058,0.161,0.031,0.249c-0.219-0.357-0.256-0.771-0.324-1.166
		c-0.214-1.244-0.199-2.493-0.006-3.741c0.01-0.064,0.033-0.129,0.05-0.192C24.833,20.949,24.852,20.949,24.871,20.97z"/>
	<path fill-rule="evenodd" fill="#5E89A5" d="M131.599,17.128c-0.01,0.17-0.125,0.294-0.19,0.439
		c-0.562,1.248-0.616,2.512-0.129,3.796c0.037,0.096,0.102,0.185,0.09,0.296c-0.276-0.347-0.376-0.771-0.434-1.185
		c-0.157-1.106-0.05-2.182,0.523-3.174C131.496,17.234,131.518,17.158,131.599,17.128z"/>
	<path fill-rule="evenodd" fill="#628DA8" d="M100.455,14.607c-0.735-0.089-1.467-0.193-2.212-0.177
		c-0.881,0.018-1.738,0.155-2.579,0.414c-0.081,0.025-0.166,0.04-0.249,0.059c-0.015-0.012-0.019-0.024-0.015-0.037
		c0.004-0.012,0.009-0.019,0.014-0.019c1.415-0.524,2.875-0.572,4.355-0.413c0.17,0.019,0.339,0.044,0.509,0.067
		C100.318,14.569,100.46,14.465,100.455,14.607z"/>
	<path fill-rule="evenodd" fill="#ACC2D1" d="M143.28,28.754c0.243-0.607,0.467-1.219,0.529-1.879
		c0.091-0.943,0.013-1.861-0.394-2.732c-0.019-0.041-0.017-0.092-0.023-0.138c0.297,0.37,0.391,0.822,0.456,1.267
		c0.166,1.13,0.074,2.236-0.416,3.287C143.396,28.635,143.373,28.723,143.28,28.754z"/>
	<path fill-rule="evenodd" fill="#A8BFCE" d="M36.328,27.101c-0.354,0.312-0.798,0.44-1.233,0.554
		c-0.981,0.254-1.974,0.298-2.964,0.025c-0.256-0.07-0.507-0.157-0.736-0.296c0.349,0.011,0.644,0.211,0.979,0.276
		c1.263,0.247,2.475,0.113,3.64-0.438C36.114,27.174,36.204,27.09,36.328,27.101z"/>
	<path fill-rule="evenodd" fill="#5D89A4" d="M18.111,14.386c0.094,0.102,0.252,0.007,0.345,0.112
		c-0.472-0.021-0.942-0.071-1.417-0.065c-1.052,0.012-2.068,0.199-3.056,0.552c-0.034,0.013-0.074,0.012-0.111,0.017
		c-0.016-0.012-0.021-0.024-0.015-0.035c0.005-0.012,0.011-0.018,0.017-0.018c0.769-0.328,1.583-0.467,2.406-0.567
		c0.592-0.043,1.184-0.043,1.776,0C18.075,14.382,18.093,14.384,18.111,14.386z"/>
	<path fill-rule="evenodd" fill="#B0C6D3" d="M145.12,17.477c-0.147,0.48-0.349,0.943-0.41,1.448
		c-0.11,0.918-0.035,1.807,0.38,2.649c0.02,0.04,0.02,0.09,0.029,0.137c-0.338-0.406-0.436-0.907-0.491-1.401
		c-0.099-0.878-0.044-1.75,0.328-2.573C144.998,17.644,145.021,17.536,145.12,17.477z"/>
	<path fill-rule="evenodd" fill="#B5C8D5" d="M134.929,24.225c0.964,0.367,1.973,0.612,2.917,1.032
		c0.281,0.125,0.583,0.226,0.802,0.462c-0.379-0.173-0.747-0.37-1.136-0.512c-0.875-0.321-1.758-0.616-2.638-0.924
		c-0.026-0.009-0.047-0.03-0.071-0.046C134.842,24.197,134.885,24.201,134.929,24.225z"/>
	<path fill-rule="evenodd" fill="#5C88A4" d="M64.954,23.66c-0.095,0.297-0.191,0.594-0.284,0.892
		c-0.021,0.07-0.014,0.168-0.108,0.178c-0.111,0.013-0.134-0.095-0.16-0.17c-0.131-0.385-0.266-0.769-0.38-1.159
		c-0.141-0.489-0.348-0.959-0.443-1.461c0.171,0.125,0.162,0.334,0.22,0.506c0.224,0.653,0.423,1.316,0.633,1.975
		c0.022,0.067,0.03,0.149,0.127,0.189c0.11-0.319,0.221-0.635,0.331-0.951C64.912,23.627,64.934,23.628,64.954,23.66z"/>
	<path fill-rule="evenodd" fill="#638CA7" d="M100.908,27.433c-0.354,0.246-0.771,0.299-1.177,0.369
		c-0.84,0.15-1.677,0.145-2.496-0.129c0.045-0.043,0.095-0.033,0.146-0.014c0.513,0.111,1.03,0.143,1.554,0.134
		c0.613-0.012,1.205-0.118,1.779-0.333C100.773,27.438,100.842,27.44,100.908,27.433z"/>
	<path fill-rule="evenodd" fill="#B5C9D6" d="M63.457,21.375c-0.076-0.042-0.139-0.104-0.159-0.189
		c-0.265-1.146-0.711-2.238-1.042-3.365c-0.028-0.042-0.03-0.082,0.008-0.12c0.189,0.323,0.251,0.691,0.367,1.039
		c0.274,0.821,0.538,1.645,0.803,2.469C63.453,21.262,63.45,21.32,63.457,21.375z"/>
	<path fill-rule="evenodd" fill="#AEC4D2" d="M138.705,27.9c-0.274,0.224-0.61,0.235-0.938,0.255
		c-0.869,0.054-1.724-0.065-2.562-0.295c-0.042-0.013-0.077-0.05-0.116-0.075c0.447,0.077,0.892,0.167,1.34,0.226
		c0.735,0.099,1.473,0.15,2.191-0.113C138.646,27.888,138.677,27.898,138.705,27.9z"/>
	<path fill-rule="evenodd" fill="#6992AC" d="M48.011,22.443c-0.006,0.031-0.012,0.063-0.019,0.094
		c-0.274-0.605-0.442-1.249-0.668-1.872c-0.212-0.579-0.396-1.168-0.592-1.752c-0.02-0.045-0.024-0.089,0.016-0.127
		c0.313,0.896,0.626,1.79,0.937,2.686C47.797,21.795,47.902,22.12,48.011,22.443z"/>
	<path fill-rule="evenodd" fill="#5F8AA5" d="M134.922,31.397c0.001,0.018,0.001,0.035,0.001,0.052
		c-0.92-0.166-1.796-0.47-2.642-0.854c-0.256-0.116-0.534-0.197-0.741-0.404c0.485,0.209,0.966,0.426,1.456,0.622
		C133.62,31.063,134.275,31.216,134.922,31.397z"/>
	<path fill-rule="evenodd" fill="#96B2C4" d="M56.704,14.668c0.071-0.093,0.173-0.062,0.264-0.062
		c1.349-0.001,2.697-0.002,4.046,0.001c0.102,0,0.241-0.055,0.277,0.117c-0.019,0.033-0.04,0.034-0.062,0.002l0,0
		c-0.098-0.055-0.205-0.028-0.307-0.028c-1.39-0.003-2.781,0-4.17-0.003C56.736,14.687,56.719,14.677,56.704,14.668z"/>
	<path fill-rule="evenodd" fill="#5785A1" d="M61.229,14.727c0.021,0,0.041-0.001,0.062-0.002c0.325,0.993,0.649,1.985,0.974,2.977
		c-0.003,0.04-0.006,0.08-0.008,0.12c-0.191-0.331-0.261-0.704-0.379-1.061C61.655,16.084,61.445,15.404,61.229,14.727z"/>
	<path fill-rule="evenodd" fill="#5C88A4" d="M13.308,25.146c-0.261-0.315-0.313-0.712-0.384-1.088
		c-0.124-0.658-0.112-1.326-0.008-1.989c0.003-0.024,0.028-0.048,0.043-0.071c0.046,0.172,0.044,0.344,0.001,0.516l0,0
		c-0.05,0.344-0.045,0.688-0.002,1.032c0.012,0.49,0.132,0.956,0.311,1.409C13.292,25.017,13.325,25.075,13.308,25.146z"/>
	<path fill-rule="evenodd" fill="#AAC1CF" d="M68.726,26.349c0.043-0.388,0.223-0.736,0.338-1.103
		c0.152-0.487,0.322-0.969,0.488-1.451c0.018-0.051,0.059-0.094,0.089-0.14c-0.089,0.533-0.313,1.025-0.481,1.534
		C69.031,25.581,68.95,25.992,68.726,26.349z"/>
	<path fill-rule="evenodd" fill="#AAC1CF" d="M46.748,18.787c-0.005,0.042-0.01,0.085-0.016,0.127
		c-0.359-0.856-0.605-1.752-0.913-2.627c0.006-0.032,0.011-0.064,0.017-0.097c0.276,0.625,0.447,1.287,0.684,1.926
		C46.601,18.337,46.671,18.563,46.748,18.787z"/>
	<path fill-rule="evenodd" fill="#5885A2" d="M52.181,21.025c0.018,0,0.037,0,0.054,0c0.263,0.812,0.528,1.623,0.789,2.436
		c0.02,0.063,0.013,0.131,0.019,0.197c-0.263-0.588-0.405-1.215-0.618-1.819C52.332,21.572,52.262,21.297,52.181,21.025z"/>
	<path fill-rule="evenodd" fill="#5C88A4" d="M8.607,20.739c0-0.095,0-0.19,0.001-0.285c0.221-0.633,0.461-1.257,0.809-1.833
		c0.062-0.102,0.098-0.229,0.22-0.288c-0.014,0.191-0.155,0.321-0.24,0.475C9.056,19.42,8.831,20.079,8.607,20.739z"/>
	<path fill-rule="evenodd" fill="#B4C8D5" d="M103.025,15.536c-0.298-0.071-0.541-0.258-0.815-0.378
		c-0.462-0.2-0.936-0.351-1.417-0.486c-0.019-0.015-0.023-0.033-0.017-0.056c0.01-0.005,0.019-0.011,0.028-0.016
		c0.694,0.159,1.353,0.411,1.978,0.751C102.872,15.4,102.971,15.44,103.025,15.536z"/>
	<path fill-rule="evenodd" fill="#6A93AC" d="M71.253,18.853c0.089-0.526,0.322-1.008,0.471-1.515
		c0.078-0.264,0.184-0.519,0.276-0.778c0.018-0.028,0.036-0.028,0.054,0C71.813,17.333,71.583,18.11,71.253,18.853z"/>
	<path fill-rule="evenodd" fill="#A8BFCE" d="M139.446,21.488c-0.791-0.246-1.601-0.443-2.353-0.802
		c0.524,0.094,1.008,0.322,1.517,0.468c0.281,0.08,0.557,0.187,0.835,0.281c0.021,0.012,0.027,0.023,0.021,0.035
		C139.46,21.482,139.452,21.488,139.446,21.488z"/>
	<path fill-rule="evenodd" fill="#AAC1CF" d="M56.6,29.448c-0.006-0.043-0.011-0.085-0.017-0.126
		c0.249-0.725,0.498-1.449,0.748-2.175c0.021-0.021,0.041-0.021,0.058,0.003C57.154,27.925,56.909,28.697,56.6,29.448z"/>
	<path fill-rule="evenodd" fill="#618CA7" d="M57.389,27.15c-0.019-0.002-0.039-0.002-0.058-0.003
		c0.16-0.656,0.418-1.281,0.623-1.924c0.035-0.107,0.08-0.212,0.119-0.317c0.042,0.043,0.04,0.09,0.01,0.138
		c-0.206,0.62-0.411,1.24-0.617,1.86C57.439,26.985,57.416,27.068,57.389,27.15z"/>
	<path fill-rule="evenodd" fill="#B1C6D3" d="M153.417,18.392c0.729,0.228,1.395,0.574,2.005,1.029
		c-0.021,0.027-0.045,0.03-0.071,0.009c-0.61-0.395-1.257-0.717-1.933-0.984c-0.02-0.011-0.026-0.023-0.02-0.035
		C153.404,18.398,153.41,18.392,153.417,18.392z"/>
	<path fill-rule="evenodd" fill="#B4C8D5" d="M93.871,30.523c0.476,0.185,0.91,0.465,1.4,0.616c0.245,0.075,0.483,0.164,0.725,0.245
		c-0.041,0.041-0.086,0.037-0.132,0.009C95.15,31.216,94.467,30.972,93.871,30.523z"/>
	<path fill-rule="evenodd" fill="#B1C6D4" d="M12.959,22.514c0-0.172,0-0.344-0.001-0.516c0.118-0.513,0.269-1.013,0.555-1.461
		c0.036-0.056,0.06-0.121,0.131-0.143c-0.042,0.247-0.227,0.426-0.311,0.657c-0.161,0.445-0.315,0.887-0.328,1.365
		C13.005,22.449,12.976,22.482,12.959,22.514z"/>
	<path fill-rule="evenodd" fill="#5D89A5" d="M147.536,31.095c-0.032,0.006-0.063,0.013-0.095,0.019
		c-0.683-0.178-1.334-0.428-1.933-0.807c0.582,0.196,1.118,0.504,1.709,0.673C147.327,31.011,147.431,31.056,147.536,31.095z"/>
	<path fill-rule="evenodd" fill="#658FA9" d="M58.083,25.044c-0.003-0.046-0.006-0.092-0.01-0.138
		c0.205-0.597,0.409-1.195,0.615-1.791c0.018-0.053,0.022-0.114,0.083-0.142c-0.022,0.327-0.18,0.614-0.275,0.919
		C58.373,24.281,58.223,24.661,58.083,25.044z"/>
	<path fill-rule="evenodd" fill="#638DA8" d="M54.988,20.109c-0.174,0.68-0.415,1.338-0.637,2.003
		c-0.018,0.028-0.036,0.028-0.054,0.001c0.212-0.668,0.423-1.336,0.634-2.003C54.95,20.083,54.969,20.083,54.988,20.109z"/>
	<path fill-rule="evenodd" fill="#B9CCD8" d="M153.417,18.392c0,0.019,0,0.036,0.001,0.054c-0.656-0.207-1.33-0.329-2.015-0.389
		c0.158-0.07,0.32-0.036,0.482-0.017C152.419,18.06,152.924,18.198,153.417,18.392z"/>
	<path fill-rule="evenodd" fill="#AAC1CF" d="M67.008,31.387c0.103-0.543,0.337-1.044,0.502-1.566
		c0.047-0.149,0.052-0.323,0.186-0.439C67.521,30.068,67.316,30.746,67.008,31.387z"/>
	<path fill-rule="evenodd" fill="#ACC2D1" d="M139.446,21.488c0-0.018,0-0.035-0.001-0.053c0.634,0.188,1.26,0.394,1.83,0.738
		c-0.038,0.029-0.077,0.026-0.117,0.004C140.611,21.889,140.018,21.718,139.446,21.488z"/>
	<path fill-rule="evenodd" fill="#9DB7C8" d="M151.886,18.04c-0.161,0.005-0.322,0.011-0.482,0.017
		c-0.604-0.038-1.189,0.065-1.77,0.215c0.247-0.199,0.55-0.22,0.848-0.25C150.949,17.974,151.419,17.933,151.886,18.04z"/>
	<path fill-rule="evenodd" fill="#759BB2" d="M28.53,30.42c0.412,0.192,0.825,0.379,1.233,0.578c0.161,0.08,0.358,0.077,0.487,0.222
		C29.621,31.073,29.045,30.811,28.53,30.42z"/>
	<path fill-rule="evenodd" fill="#A3BBCB" d="M111.735,31.387c-0.001,0.019-0.001,0.038-0.001,0.058
		c-0.652-0.074-1.255-0.275-1.774-0.689c0.405,0.151,0.77,0.401,1.196,0.496C111.35,31.295,111.542,31.342,111.735,31.387z"/>
	<path fill-rule="evenodd" fill="#638DA8" d="M64.954,23.66c-0.021-0.001-0.043-0.002-0.063-0.002
		c0.192-0.611,0.384-1.221,0.576-1.831c0.019-0.025,0.039-0.026,0.057-0.001C65.382,22.453,65.128,23.044,64.954,23.66z"/>
	<path fill-rule="evenodd" fill="#ACC2D0" d="M66.323,19.363c-0.208,0.535-0.326,1.102-0.559,1.628
		c-0.036-0.026-0.043-0.058-0.019-0.096c0.174-0.592,0.359-1.182,0.58-1.759C66.365,19.213,66.37,19.289,66.323,19.363z"/>
	<path fill-rule="evenodd" fill="#ACC2D0" d="M55.787,17.646c-0.208,0.535-0.326,1.101-0.558,1.628
		c-0.037-0.026-0.043-0.058-0.02-0.096c0.174-0.592,0.359-1.182,0.582-1.759C55.829,17.496,55.834,17.571,55.787,17.646z"/>
	<path fill-rule="evenodd" fill="#A1BBCB" d="M124.269,31.557c-0.001-0.02-0.001-0.038-0.002-0.058
		c0.497-0.133,0.995-0.267,1.493-0.398C125.296,31.359,124.787,31.477,124.269,31.557z"/>
	<path fill-rule="evenodd" fill="#9DB7C8" d="M154.733,22.059c-0.501-0.179-1.011-0.337-1.49-0.572
		C153.77,21.6,154.277,21.764,154.733,22.059z"/>
	<path fill-rule="evenodd" fill="#5E89A5" d="M19.71,31.384c-0.056,0.001-0.112,0.002-0.168,0.003
		c0.499-0.188,0.998-0.376,1.497-0.564C20.634,31.098,20.168,31.232,19.71,31.384z"/>
	<path fill-rule="evenodd" fill="#A5BECD" d="M125.526,15.016c0.026-0.005,0.054-0.01,0.08-0.015
		c0.461,0.182,0.925,0.36,1.297,0.703C126.445,15.475,125.986,15.245,125.526,15.016z"/>
	<path fill-rule="evenodd" fill="#5C88A4" d="M55.787,17.646c0.001-0.075,0.003-0.15,0.004-0.226
		c0.111-0.333,0.223-0.665,0.33-0.998c0.026-0.081,0.027-0.172,0.123-0.21C56.144,16.706,55.962,17.175,55.787,17.646z"/>
	<path fill-rule="evenodd" fill="#5C88A4" d="M66.323,19.363c0.001-0.075,0.002-0.15,0.003-0.226
		c0.111-0.333,0.224-0.665,0.331-0.998c0.026-0.081,0.027-0.172,0.123-0.209C66.68,18.424,66.499,18.893,66.323,19.363z"/>
	<path fill-rule="evenodd" fill="#5885A2" d="M54.297,22.113c0.018,0,0.037,0,0.054-0.001c-0.135,0.446-0.235,0.902-0.447,1.321
		c-0.04-0.037-0.037-0.078-0.008-0.119C54.03,22.914,54.164,22.514,54.297,22.113z"/>
	<path fill-rule="evenodd" fill="#ACC2D0" d="M18.056,14.382c-0.592,0-1.185,0-1.776,0c0.347-0.106,0.705-0.045,1.057-0.049
		C17.576,14.33,17.823,14.279,18.056,14.382z"/>
	<path fill-rule="evenodd" fill="#A8BFCE" d="M25.217,19.596c-0.099,0.361-0.197,0.722-0.295,1.082
		c-0.012,0.007-0.023,0.014-0.035,0.021c-0.01-0.009-0.02-0.019-0.03-0.028C24.939,20.3,24.997,19.92,25.217,19.596z"/>
	<path fill-rule="evenodd" fill="#5E89A5" d="M72.055,16.56h-0.027l-0.027,0c0.111-0.371,0.199-0.749,0.399-1.087
		C72.351,15.856,72.185,16.202,72.055,16.56z"/>
	<path fill-rule="evenodd" fill="#759BB1" d="M149.124,19.651c-0.232-0.332-0.181-0.833,0.112-1.088
		C149.04,18.909,149.021,19.273,149.124,19.651z"/>
	<path fill-rule="evenodd" fill="#A1B9CA" d="M142.307,18.619c0.126-0.332,0.29-0.642,0.516-0.917
		C142.711,18.042,142.538,18.347,142.307,18.619z"/>
	<path fill-rule="evenodd" fill="#96B2C4" d="M67.243,16.388c-0.058,0.345-0.127,0.687-0.339,0.979
		C66.993,17.032,67.073,16.694,67.243,16.388z"/>
	<path fill-rule="evenodd" fill="#96B2C4" d="M56.714,14.79c-0.13,0.28-0.13,0.612-0.345,0.858c0.086-0.336,0.172-0.671,0.335-0.98
		c0.007,0.007,0.015,0.014,0.022,0.021C56.738,14.725,56.733,14.758,56.714,14.79z"/>
	<path fill-rule="evenodd" fill="#6C94AE" d="M154.79,30.871c0.25-0.198,0.51-0.383,0.806-0.51
		C155.367,30.595,155.11,30.782,154.79,30.871z"/>
	<path fill-rule="evenodd" fill="#6791AB" d="M142.197,22.741c-0.291-0.114-0.568-0.247-0.803-0.458
		C141.692,22.381,141.966,22.525,142.197,22.741z"/>
	<path fill-rule="evenodd" fill="#5E89A5" d="M53.321,24.52c-0.13-0.274-0.227-0.561-0.278-0.862
		C53.23,23.914,53.299,24.209,53.321,24.52z"/>
	<path fill-rule="evenodd" fill="#638DA8" d="M155.939,22.741c-0.289-0.116-0.569-0.245-0.802-0.46
		C155.436,22.381,155.708,22.525,155.939,22.741z"/>
	<path fill-rule="evenodd" fill="#AEC4D2" d="M65.746,20.896c0.006,0.032,0.012,0.064,0.019,0.096
		c-0.08,0.279-0.161,0.557-0.241,0.834l-0.028,0.002l-0.029-0.001C65.51,21.502,65.638,21.203,65.746,20.896z"/>
	<path fill-rule="evenodd" fill="#AEC4D2" d="M55.209,19.178c0.006,0.032,0.013,0.064,0.02,0.096
		c-0.081,0.279-0.161,0.557-0.241,0.835l-0.029,0h-0.028C54.973,19.784,55.103,19.485,55.209,19.178z"/>
	<path fill-rule="evenodd" fill="#6F96AF" d="M140.02,31.337c0-0.017,0-0.036,0.001-0.053c0.27-0.094,0.518-0.241,0.802-0.293
		C140.586,31.179,140.305,31.262,140.02,31.337z"/>
	<path fill-rule="evenodd" fill="#6C95AE" d="M95.414,14.847c0,0.019,0,0.037,0.001,0.056c-0.244,0.108-0.483,0.227-0.749,0.279
		C94.881,14.992,95.155,14.938,95.414,14.847z"/>
	<path fill-rule="evenodd" fill="#B1C6D4" d="M12.958,23.546c-0.082-0.344-0.084-0.688,0.002-1.032
		C12.959,22.857,12.958,23.202,12.958,23.546z"/>
	<path fill-rule="evenodd" fill="#B6C9D5" d="M53.896,23.314c0.003,0.039,0.005,0.079,0.008,0.119
		c-0.073,0.211-0.146,0.422-0.219,0.632c-0.025,0.028-0.048,0.026-0.069-0.005C53.719,23.815,53.737,23.537,53.896,23.314z"/>
	<path fill-rule="evenodd" fill="#AAC1CF" d="M50.644,30.238c-0.005,0.042-0.01,0.084-0.017,0.126
		c-0.126-0.236-0.198-0.493-0.269-0.75c0.018-0.027,0.036-0.026,0.054,0C50.489,29.822,50.566,30.029,50.644,30.238z"/>
	<path fill-rule="evenodd" fill="#B3C7D3" d="M134.467,27.606c-0.178-0.07-0.355-0.143-0.533-0.214
		c-0.017-0.024-0.012-0.046,0.011-0.064c0.225,0.066,0.441,0.15,0.64,0.275C134.545,27.644,134.507,27.646,134.467,27.606z"/>
	<path fill-rule="evenodd" fill="#A8BFCE" d="M50.412,29.614h-0.026h-0.027c-0.084-0.184-0.164-0.368-0.179-0.574
		C50.345,29.196,50.354,29.416,50.412,29.614z"/>
	<path fill-rule="evenodd" fill="#6892AC" d="M143.115,16.097c-0.229-0.052-0.412-0.181-0.576-0.341
		C142.763,15.816,142.954,15.931,143.115,16.097z"/>
	<path fill-rule="evenodd" fill="#6E95AE" d="M97.381,27.659c-0.048,0.005-0.098,0.009-0.146,0.014
		c-0.172-0.07-0.371-0.082-0.505-0.234C96.962,27.467,97.169,27.573,97.381,27.659z"/>
	<path fill-rule="evenodd" fill="#6791AB" d="M133.944,27.328c-0.004,0.021-0.007,0.044-0.011,0.064
		c-0.204-0.064-0.413-0.121-0.556-0.301C133.589,27.117,133.743,27.28,133.944,27.328z"/>
	<path fill-rule="evenodd" fill="#BCCDD9" d="M95.864,31.394c0.043-0.003,0.088-0.007,0.132-0.009
		c0.034,0.002,0.068,0.005,0.102,0.009c0.087,0.064,0.201-0.015,0.287,0.056l0,0c0.06,0.036,0.118,0.071,0.178,0.107
		C96.321,31.538,96.08,31.519,95.864,31.394z"/>
	<path fill-rule="evenodd" fill="#7399B2" d="M134.929,24.225c-0.041,0.004-0.084,0.009-0.126,0.013
		c-0.143-0.094-0.337-0.089-0.453-0.234C134.563,24.025,134.751,24.112,134.929,24.225z"/>
	<path fill-rule="evenodd" fill="#B5C9D6" d="M53.617,24.061c0.023,0.002,0.046,0.003,0.069,0.005
		c-0.066,0.167-0.036,0.369-0.191,0.503C53.478,24.385,53.584,24.231,53.617,24.061z"/>
	<path fill-rule="evenodd" fill="#7298B0" d="M13.874,14.949c0.001,0.018,0,0.036-0.001,0.053c-0.177,0.043-0.315,0.197-0.514,0.181
		C13.504,15.046,13.684,14.987,13.874,14.949z"/>
	<path fill-rule="evenodd" fill="#A3BBCB" d="M111.788,31.449c0.227-0.004,0.453-0.006,0.681-0.01
		C112.243,31.57,112.016,31.508,111.788,31.449z"/>
	<path fill-rule="evenodd" fill="#6C95AE" d="M94.666,15.182c-0.126,0.128-0.281,0.198-0.458,0.23
		C94.329,15.271,94.483,15.199,94.666,15.182z"/>
	<path fill-rule="evenodd" fill="#7298B0" d="M13.359,15.183c-0.127,0.129-0.285,0.196-0.46,0.228
		C13.02,15.268,13.177,15.202,13.359,15.183z"/>
	<path fill-rule="evenodd" fill="#7399B2" d="M151.582,25.267c0.176,0.028,0.349,0.067,0.461,0.227
		C151.873,25.449,151.705,25.403,151.582,25.267z"/>
	<path fill-rule="evenodd" fill="#A8BFCE" d="M31.329,27.339c-0.156-0.04-0.296-0.104-0.395-0.239
		C31.099,27.123,31.234,27.197,31.329,27.339z"/>
	<path fill-rule="evenodd" fill="#A1BBCB" d="M155.754,19.127c0.054-0.147,0.104-0.296,0.237-0.395
		C155.959,18.892,155.916,19.046,155.754,19.127z"/>
	<path fill-rule="evenodd" fill="#6791AB" d="M133.378,27.092c-0.164-0.022-0.305-0.085-0.402-0.228
		C133.137,26.895,133.272,26.967,133.378,27.092z"/>
	<path fill-rule="evenodd" fill="#B4C8D5" d="M100.455,14.607c-0.059-0.036-0.118-0.071-0.177-0.106
		c0.184-0.015,0.354,0.053,0.526,0.1c-0.006,0.008-0.014,0.016-0.021,0.023c-0.094,0.02-0.187,0.033-0.277-0.009
		C100.49,14.613,100.473,14.611,100.455,14.607z"/>
	<path fill-rule="evenodd" fill="#608BA7" d="M134.467,27.606c0.04-0.001,0.078-0.001,0.117-0.003
		c0.104,0.078,0.276,0.022,0.342,0.176C134.767,27.739,134.59,27.746,134.467,27.606z"/>
	<path fill-rule="evenodd" fill="#B6CBD7" d="M155.351,19.43c0.023-0.003,0.048-0.005,0.071-0.009
		c0.085,0.015,0.156-0.017,0.222-0.065C155.605,19.621,155.484,19.551,155.351,19.43z"/>
	<path fill-rule="evenodd" fill="#A8BFCE" d="M50.06,28.702c0.018,0,0.035,0.001,0.051,0.003c0.031,0.11,0.097,0.214,0.068,0.336
		C50.101,28.942,50.063,28.827,50.06,28.702z"/>
	<path fill-rule="evenodd" fill="#5885A2" d="M63.579,21.94c-0.081-0.101-0.121-0.217-0.113-0.347
		C63.571,21.688,63.586,21.811,63.579,21.94z"/>
	<path fill-rule="evenodd" fill="#638DA8" d="M155.139,22.281c-0.102,0.012-0.175-0.035-0.23-0.115
		C155.013,22.15,155.087,22.193,155.139,22.281z"/>
	<path fill-rule="evenodd" fill="#A8BFCE" d="M24.871,20.97c-0.02,0-0.039,0-0.058,0c-0.003-0.103-0.011-0.205,0.043-0.299
		c0.007,0.006,0.015,0.013,0.022,0.02C24.903,20.784,24.915,20.878,24.871,20.97L24.871,20.97z"/>
	<path fill-rule="evenodd" fill="#6F96AF" d="M140.822,30.991c0.054-0.08,0.126-0.127,0.228-0.117
		C141,30.963,140.927,31.008,140.822,30.991z"/>
	<path fill-rule="evenodd" fill="#6791AB" d="M141.158,22.178c0.039-0.002,0.078-0.003,0.117-0.004
		c0.039,0.036,0.08,0.072,0.12,0.109C141.293,22.299,141.228,22.236,141.158,22.178z"/>
	<path fill-rule="evenodd" fill="#658EA9" d="M21.146,30.754c0.063-0.066,0.131-0.121,0.232-0.106
		C21.324,30.733,21.254,30.785,21.146,30.754z"/>
	<path fill-rule="evenodd" fill="#5785A1" d="M56.714,14.79c0.004-0.034,0.007-0.067,0.012-0.101
		c0.331-0.007,0.663-0.02,0.994-0.021c1.072-0.003,2.144-0.002,3.217,0c0.098,0,0.211-0.042,0.292,0.058c-1.396,0-2.792,0-4.188,0
		C56.928,14.727,56.811,14.707,56.714,14.79z"/>
	<path fill-rule="evenodd" fill="#FFFFFF" d="M118.435,20.511c0.835-2.023,3.677-2.854,5.522-1.791
		c0.456,0.262,0.823,0.613,1.115,1.046c0.251,0.379,0.373,0.81,0.479,1.244c0.075,0.309-0.001,0.387-0.331,0.387
		c-2.222,0-4.441,0-6.663,0c-0.329,0-0.351-0.032-0.29-0.344C118.305,20.866,118.356,20.685,118.435,20.511z"/>
	<path fill-rule="evenodd" fill="#648EA9" d="M118.435,20.511c-0.046,0.203-0.077,0.409-0.141,0.606
		c-0.062,0.193,0.011,0.238,0.187,0.236c0.581-0.005,1.163-0.002,1.745-0.002c1.659,0,3.318,0,4.978,0
		c0.349,0,0.369-0.031,0.299-0.383c-0.086-0.422-0.269-0.808-0.43-1.203c0.38,0.428,0.452,0.969,0.548,1.5
		c0.02,0.105-0.065,0.131-0.14,0.144c-0.083,0.015-0.17,0.012-0.257,0.012c-2.213,0.001-4.426,0.001-6.639,0.001
		c-0.421,0-0.447-0.033-0.339-0.445C118.29,20.814,118.291,20.634,118.435,20.511z"/>
	<path fill-rule="evenodd" fill="#FFFFFF" d="M35.744,19.144c0.522,0.521,0.833,1.148,0.965,1.872
		c0.064,0.354,0.075,0.354-0.278,0.354c-1.888,0-3.776,0-5.664,0c-0.372,0-0.745-0.008-1.116,0.003
		c-0.196,0.005-0.246-0.058-0.208-0.253c0.199-1.011,0.786-1.733,1.65-2.257c0.065-0.039,0.129-0.08,0.193-0.12
		c0.721-0.396,1.495-0.54,2.31-0.494C34.417,18.292,35.127,18.608,35.744,19.144z"/>
	<path fill-rule="evenodd" fill="#53819F" d="M35.744,19.144c-0.383-0.234-0.735-0.523-1.177-0.659
		c-0.308-0.095-0.62-0.16-0.938-0.207c-0.018-0.011-0.024-0.022-0.019-0.034c0.005-0.012,0.011-0.018,0.018-0.018
		C34.452,18.259,35.17,18.537,35.744,19.144z"/>
	<path fill-rule="evenodd" fill="#628CA7" d="M33.629,18.225c0.001,0.017,0.001,0.035,0.001,0.052
		c-0.821-0.046-1.593,0.151-2.344,0.465c0.437-0.339,0.958-0.448,1.486-0.512C33.054,18.197,33.343,18.225,33.629,18.225z"/>
	<path fill-rule="evenodd" fill="#5E89A5" d="M24.871,20.969c0.002-0.093,0.005-0.186,0.008-0.279
		c0.013-0.008,0.027-0.013,0.042-0.013C24.922,20.778,24.95,20.883,24.871,20.969z"/>
	<path fill-rule="evenodd" fill="#FFFFFF" d="M95.077,20c1.068-1.442,2.747-2.047,4.497-1.598c0.671,0.172,1.227,0.55,1.679,1.079
		c0.394,0.486,0.581,1.06,0.703,1.661c0.034,0.169-0.028,0.255-0.204,0.255c-2.313,0-4.627,0-6.94,0
		c-0.189,0-0.241-0.068-0.188-0.27C94.727,20.73,94.845,20.343,95.077,20z"/>
	<path fill-rule="evenodd" fill="#618CA7" d="M106.69,24.629c-0.056,0.096-0.15,0.067-0.23,0.067
		c-3.941,0.001-7.881-0.001-11.821-0.001c-0.028,0-0.057-0.004-0.086-0.006c0.101-0.086,0.221-0.047,0.33-0.047
		c3.803-0.003,7.604-0.002,11.407-0.003C106.424,24.64,106.557,24.633,106.69,24.629z"/>
	<path fill-rule="evenodd" fill="#638DA8" d="M95.077,20c-0.146,0.368-0.329,0.722-0.413,1.116c-0.038,0.179-0.015,0.24,0.178,0.239
		c2.285-0.005,4.57-0.005,6.855,0.001c0.23,0,0.234-0.091,0.202-0.279c-0.098-0.583-0.349-1.098-0.646-1.596
		c0.268,0.183,0.36,0.483,0.486,0.755c0.127,0.277,0.189,0.579,0.248,0.878c0.043,0.216-0.03,0.318-0.269,0.313
		c-0.486-0.013-0.973-0.004-1.46-0.004c-1.784,0-3.569,0-5.354,0c-0.357,0-0.394-0.036-0.3-0.378
		C94.708,20.673,94.777,20.283,95.077,20z"/>
	<path fill-rule="evenodd" fill="#628DA8" d="M100.507,14.615c0.093,0.003,0.186,0.006,0.278,0.009
		c0.008,0.015,0.011,0.03,0.008,0.048C100.695,14.668,100.592,14.691,100.507,14.615z"/>
	<path fill-rule="evenodd" fill="#5885A2" d="M96.385,31.449c-0.101,0.002-0.203,0.023-0.287-0.056
		C96.197,31.394,96.304,31.359,96.385,31.449z"/>
</g>
</svg>
